<mxfile host="app.diagrams.net" etag="38pWknGFiC_h8XmjX9fU" version="23.1.5" type="device">
  <diagram id="R2lEEEUBdFMjLlhIrx00" name="Page-1">
    <mxGraphModel dx="792" dy="437" grid="1" gridSize="10" guides="1" tooltips="1" connect="1" arrows="1" fold="1" page="1" pageScale="1" pageWidth="850" pageHeight="1100" math="0" shadow="0" extFonts="Permanent Marker^https://fonts.googleapis.com/css?family=Permanent+Marker">
      <root>
        <mxCell id="0" />
        <mxCell id="1" parent="0" />
        <mxCell id="sqaGXSC464xRvexxLFKJ-3" value="Patient" style="rounded=1;arcSize=10;whiteSpace=wrap;html=1;align=center;" vertex="1" parent="1">
          <mxGeometry x="480" y="200" width="100" height="40" as="geometry" />
        </mxCell>
        <mxCell id="sqaGXSC464xRvexxLFKJ-4" value="Staff" style="rounded=1;arcSize=10;whiteSpace=wrap;html=1;align=center;" vertex="1" parent="1">
          <mxGeometry x="180" y="200" width="100" height="40" as="geometry" />
        </mxCell>
        <mxCell id="sqaGXSC464xRvexxLFKJ-6" value="M" style="edgeStyle=orthogonalEdgeStyle;rounded=0;orthogonalLoop=1;jettySize=auto;html=1;entryX=0;entryY=0.5;entryDx=0;entryDy=0;shape=link;verticalAlign=top;" edge="1" parent="1" source="sqaGXSC464xRvexxLFKJ-5" target="sqaGXSC464xRvexxLFKJ-3">
          <mxGeometry relative="1" as="geometry" />
        </mxCell>
        <mxCell id="sqaGXSC464xRvexxLFKJ-7" value="M" style="edgeStyle=orthogonalEdgeStyle;rounded=0;orthogonalLoop=1;jettySize=auto;html=1;entryX=1;entryY=0.5;entryDx=0;entryDy=0;shape=link;verticalAlign=top;" edge="1" parent="1" source="sqaGXSC464xRvexxLFKJ-5" target="sqaGXSC464xRvexxLFKJ-4">
          <mxGeometry relative="1" as="geometry" />
        </mxCell>
        <mxCell id="sqaGXSC464xRvexxLFKJ-5" value="triages" style="shape=rhombus;perimeter=rhombusPerimeter;whiteSpace=wrap;html=1;align=center;" vertex="1" parent="1">
          <mxGeometry x="320" y="190" width="120" height="60" as="geometry" />
        </mxCell>
      </root>
    </mxGraphModel>
  </diagram>
</mxfile>
